<svg width="769" height="541" viewBox="142 251 769 541" fill="none" xmlns="http://www.w3.org/2000/svg">
<path d="M187.674 751.58C178.615 751.58 171.019 749.43 164.884 745.13C158.749 740.83 154.134 734.982 151.038 727.586C147.942 720.133 146.394 711.791 146.394 702.56C146.394 693.215 147.942 684.844 151.038 677.448C154.134 670.052 158.663 664.233 164.626 659.99C170.646 655.69 178.071 653.54 186.9 653.54C195.672 653.54 203.269 655.69 209.69 659.99C216.169 664.233 221.185 670.052 224.74 677.448C228.295 684.787 230.072 693.157 230.072 702.56C230.072 711.848 228.323 720.19 224.826 727.586C221.329 734.982 216.398 740.83 210.034 745.13C203.67 749.43 196.217 751.58 187.674 751.58ZM142.868 790.28V656.12H161.186V721.308H163.766V790.28H142.868ZM184.492 733.004C189.881 733.004 194.325 731.657 197.822 728.962C201.319 726.267 203.899 722.627 205.562 718.04C207.282 713.396 208.142 708.236 208.142 702.56C208.142 696.941 207.282 691.839 205.562 687.252C203.842 682.608 201.176 678.939 197.564 676.244C193.952 673.492 189.365 672.116 183.804 672.116C178.529 672.116 174.229 673.406 170.904 675.986C167.579 678.509 165.113 682.063 163.508 686.65C161.96 691.179 161.186 696.483 161.186 702.56C161.186 708.58 161.96 713.883 163.508 718.47C165.113 723.057 167.607 726.64 170.99 729.22C174.43 731.743 178.931 733.004 184.492 733.004ZM290.05 751.58C280.762 751.58 272.65 749.487 265.712 745.302C258.775 741.117 253.386 735.355 249.544 728.016C245.76 720.62 243.868 712.135 243.868 702.56C243.868 692.813 245.818 684.271 249.716 676.932C253.615 669.593 259.033 663.86 265.97 659.732C272.908 655.604 280.934 653.54 290.05 653.54C299.396 653.54 307.537 655.633 314.474 659.818C321.412 664.003 326.801 669.794 330.642 677.19C334.484 684.529 336.404 692.985 336.404 702.56C336.404 712.192 334.455 720.706 330.556 728.102C326.715 735.441 321.326 741.203 314.388 745.388C307.451 749.516 299.338 751.58 290.05 751.58ZM290.05 732.144C298.306 732.144 304.441 729.392 308.454 723.888C312.468 718.384 314.474 711.275 314.474 702.56C314.474 693.559 312.439 686.392 308.368 681.06C304.298 675.671 298.192 672.976 290.05 672.976C284.489 672.976 279.902 674.237 276.29 676.76C272.736 679.225 270.098 682.694 268.378 687.166C266.658 691.581 265.798 696.712 265.798 702.56C265.798 711.561 267.834 718.757 271.904 724.146C276.032 729.478 282.081 732.144 290.05 732.144ZM392.591 751.58C384.048 751.58 376.595 749.43 370.231 745.13C363.867 740.83 358.936 734.982 355.439 727.586C351.941 720.19 350.193 711.848 350.193 702.56C350.193 693.157 351.941 684.787 355.439 677.448C358.993 670.052 364.01 664.233 370.489 659.99C376.967 655.69 384.593 653.54 393.365 653.54C402.194 653.54 409.59 655.69 415.553 659.99C421.573 664.233 426.131 670.052 429.227 677.448C432.323 684.844 433.871 693.215 433.871 702.56C433.871 711.791 432.323 720.133 429.227 727.586C426.131 734.982 421.515 740.83 415.381 745.13C409.246 749.43 401.649 751.58 392.591 751.58ZM395.773 733.004C401.334 733.004 405.806 731.743 409.189 729.22C412.629 726.64 415.123 723.057 416.671 718.47C418.276 713.883 419.079 708.58 419.079 702.56C419.079 696.483 418.276 691.179 416.671 686.65C415.123 682.063 412.686 678.509 409.361 675.986C406.035 673.406 401.735 672.116 396.461 672.116C390.899 672.116 386.313 673.492 382.701 676.244C379.089 678.939 376.423 682.608 374.703 687.252C372.983 691.839 372.123 696.941 372.123 702.56C372.123 708.236 372.954 713.396 374.617 718.04C376.337 722.627 378.945 726.267 382.443 728.962C385.94 731.657 390.383 733.004 395.773 733.004ZM419.079 749V683.812H416.499V625.16H437.397V749H419.079Z" fill="#1D43FB"/>
<path d="M509.674 751.58C500.615 751.58 493.019 749.43 486.884 745.13C480.749 740.83 476.134 734.982 473.038 727.586C469.942 720.133 468.394 711.791 468.394 702.56C468.394 693.215 469.942 684.844 473.038 677.448C476.134 670.052 480.663 664.233 486.626 659.99C492.646 655.69 500.071 653.54 508.9 653.54C517.672 653.54 525.269 655.69 531.69 659.99C538.169 664.233 543.185 670.052 546.74 677.448C550.295 684.787 552.072 693.157 552.072 702.56C552.072 711.848 550.323 720.19 546.826 727.586C543.329 734.982 538.398 740.83 532.034 745.13C525.67 749.43 518.217 751.58 509.674 751.58ZM464.868 790.28V656.12H483.186V721.308H485.766V790.28H464.868ZM506.492 733.004C511.881 733.004 516.325 731.657 519.822 728.962C523.319 726.267 525.899 722.627 527.562 718.04C529.282 713.396 530.142 708.236 530.142 702.56C530.142 696.941 529.282 691.839 527.562 687.252C525.842 682.608 523.176 678.939 519.564 676.244C515.952 673.492 511.365 672.116 505.804 672.116C500.529 672.116 496.229 673.406 492.904 675.986C489.579 678.509 487.113 682.063 485.508 686.65C483.96 691.179 483.186 696.483 483.186 702.56C483.186 708.58 483.96 713.883 485.508 718.47C487.113 723.057 489.607 726.64 492.99 729.22C496.43 731.743 500.931 733.004 506.492 733.004ZM572.748 749V622.58H593.474V749H572.748ZM645.207 751.58C638.499 751.58 632.823 750.319 628.179 747.796C623.535 745.216 620.009 741.805 617.601 737.562C615.251 733.319 614.075 728.647 614.075 723.544C614.075 719.072 614.821 715.059 616.311 711.504C617.802 707.892 620.095 704.796 623.191 702.216C626.287 699.579 630.301 697.429 635.231 695.766C638.958 694.562 643.315 693.473 648.303 692.498C653.349 691.523 658.795 690.635 664.643 689.832C670.549 688.972 676.712 688.055 683.133 687.08L675.737 691.294C675.795 684.873 674.361 680.143 671.437 677.104C668.513 674.065 663.583 672.546 656.645 672.546C652.46 672.546 648.418 673.521 644.519 675.47C640.621 677.419 637.897 680.773 636.349 685.532L617.429 679.598C619.723 671.743 624.08 665.437 630.501 660.678C636.98 655.919 645.695 653.54 656.645 653.54C664.901 653.54 672.154 654.887 678.403 657.582C684.71 660.277 689.383 664.691 692.421 670.826C694.084 674.094 695.087 677.448 695.431 680.888C695.775 684.271 695.947 687.969 695.947 691.982V749H677.801V728.876L680.811 732.144C676.626 738.852 671.724 743.783 666.105 746.936C660.544 750.032 653.578 751.58 645.207 751.58ZM649.335 735.068C654.037 735.068 658.05 734.237 661.375 732.574C664.701 730.911 667.338 728.876 669.287 726.468C671.294 724.06 672.641 721.795 673.329 719.674C674.419 717.037 675.021 714.027 675.135 710.644C675.307 707.204 675.393 704.423 675.393 702.302L681.757 704.194C675.508 705.169 670.147 706.029 665.675 706.774C661.203 707.519 657.362 708.236 654.151 708.924C650.941 709.555 648.103 710.271 645.637 711.074C643.229 711.934 641.194 712.937 639.531 714.084C637.869 715.231 636.579 716.549 635.661 718.04C634.801 719.531 634.371 721.279 634.371 723.286C634.371 725.579 634.945 727.615 636.091 729.392C637.238 731.112 638.901 732.488 641.079 733.52C643.315 734.552 646.067 735.068 649.335 735.068ZM782.579 749V704.28C782.579 701.356 782.378 698.117 781.977 694.562C781.576 691.007 780.63 687.596 779.139 684.328C777.706 681.003 775.527 678.279 772.603 676.158C769.736 674.037 765.838 672.976 760.907 672.976C758.27 672.976 755.661 673.406 753.081 674.266C750.501 675.126 748.15 676.617 746.029 678.738C743.965 680.802 742.302 683.669 741.041 687.338C739.78 690.95 739.149 695.594 739.149 701.27L726.851 696.024C726.851 688.112 728.37 680.945 731.409 674.524C734.505 668.103 739.034 663 744.997 659.216C750.96 655.375 758.298 653.454 767.013 653.454C773.893 653.454 779.569 654.601 784.041 656.894C788.513 659.187 792.068 662.111 794.705 665.666C797.342 669.221 799.292 673.005 800.553 677.018C801.814 681.031 802.617 684.844 802.961 688.456C803.362 692.011 803.563 694.906 803.563 697.142V749H782.579ZM718.165 749V656.12H736.655V684.93H739.149V749H718.165ZM866.719 751.58C857.316 751.58 849.06 749.545 841.951 745.474C834.842 741.403 829.28 735.756 825.267 728.532C821.311 721.308 819.333 712.995 819.333 703.592C819.333 693.444 821.282 684.643 825.181 677.19C829.08 669.679 834.498 663.86 841.435 659.732C848.372 655.604 856.399 653.54 865.515 653.54C875.147 653.54 883.317 655.805 890.025 660.334C896.79 664.806 901.807 671.141 905.075 679.34C908.343 687.539 909.576 697.199 908.773 708.322H888.219V700.754C888.162 690.663 886.384 683.296 882.887 678.652C879.39 674.008 873.886 671.686 866.375 671.686C857.89 671.686 851.583 674.323 847.455 679.598C843.327 684.815 841.263 692.469 841.263 702.56C841.263 711.963 843.327 719.244 847.455 724.404C851.583 729.564 857.603 732.144 865.515 732.144C870.618 732.144 875.004 731.026 878.673 728.79C882.4 726.497 885.266 723.2 887.273 718.9L907.741 725.092C904.186 733.463 898.682 739.97 891.229 744.614C883.833 749.258 875.663 751.58 866.719 751.58ZM834.727 708.322V692.67H898.625V708.322H834.727Z" fill="#1D43FB"/>
<path d="M362 339L510.912 425.718L511 599L362.088 512.282L362 339Z" fill="url(#paint0_linear_1501_1009)"/>
<path d="M362 337.5L512 251L662 337.5L512 424L362 337.5Z" fill="#1D43FB"/>
<path d="M362 512.5L511 426V508V599L362 512.5Z" fill="url(#paint1_linear_1501_1009)"/>
<path d="M662 339L513.088 425.718L513 599L661.912 512.282L662 339Z" fill="#1D43FB"/>
<path d="M499.016 315.409C509.049 313.492 514.652 313.569 524.684 315.409L530.873 353.126C538.23 358.901 543.029 361.704 553.982 364.269L587.656 346.194C596.185 352.7 600.132 356.787 603.503 366.249L577.423 395.714C578.133 405.17 579.097 410.569 583.035 420.557L617.864 434.175C618.616 444.712 617.596 450.227 612.252 459.1L573.378 455.798C564.803 462.089 561.563 466.588 557.532 475.689L572.883 509.941C565.527 518.168 560.425 520.365 550.021 521L524.684 490.958C513.991 488.684 508.487 488.941 499.181 490.958L473.925 521C463.242 519.365 458.348 516.771 450.98 509.941L466.085 475.689C461.907 466.53 458.487 462.116 450.073 455.798L411.694 459.348C407.907 449.39 406.802 443.955 406 434.422L440.334 420.557C443.365 410.72 444.664 405.303 446.029 395.714L421.847 364.269C425.712 355.15 429.06 350.632 438.105 344.13L469.551 364.269C479.572 362.026 484.675 359.749 492.578 353.126L499.016 315.409ZM479.79 395.829L471.901 430.391L494.005 458.109H529.457L551.561 430.391L543.672 395.829L511.731 380.447L479.79 395.829Z" fill="white"/>
<path d="M362 337.5L512 251L662 337.5L512 424L362 337.5Z" fill="#1D43FB" fill-opacity="0.3"/>
<path d="M662 339L513.088 425.718L513 599L661.912 512.282L662 339Z" fill="#1D43FB" fill-opacity="0.4"/>
<defs>
<linearGradient id="paint0_linear_1501_1009" x1="362" y1="476.88" x2="511" y2="461.12" gradientUnits="userSpaceOnUse">
<stop stop-color="#1D43FB"/>
<stop offset="1" stop-color="#112895"/>
</linearGradient>
<linearGradient id="paint1_linear_1501_1009" x1="362" y1="584.38" x2="511" y2="440.62" gradientUnits="userSpaceOnUse">
<stop stop-color="#1D43FB"/>
<stop offset="1" stop-color="#112895"/>
</linearGradient>
</defs>
</svg>
