<svg width="416" height="416" viewBox="0 0 416 416" fill="none" xmlns="http://www.w3.org/2000/svg">
<path d="M58 122L206.912 208.718L207 382L58.0882 295.282L58 122Z" fill="url(#paint0_linear_1500_800)"/>
<path d="M58 120.5L208 34L358 120.5L208 207L58 120.5Z" fill="#1D43FB"/>
<path d="M58 295.5L207 209V291V382L58 295.5Z" fill="url(#paint1_linear_1500_800)"/>
<path d="M358 122L209.088 208.718L209 382L357.912 295.282L358 122Z" fill="#1D43FB"/>
<path d="M195.016 98.4087C205.049 96.4919 210.652 96.5694 220.684 98.4087L226.873 136.126C234.23 141.901 239.029 144.704 249.982 147.269L283.656 129.194C292.185 135.7 296.132 139.787 299.503 149.249L273.423 178.714C274.133 188.17 275.097 193.569 279.035 203.557L313.864 217.175C314.616 227.712 313.596 233.227 308.252 242.1L269.378 238.798C260.803 245.089 257.563 249.588 253.532 258.689L268.883 292.941C261.527 301.168 256.425 303.365 246.021 304L220.684 273.958C209.991 271.684 204.487 271.941 195.181 273.958L169.925 304C159.242 302.365 154.348 299.771 146.98 292.941L162.085 258.689C157.907 249.53 154.487 245.116 146.073 238.798L107.694 242.348C103.907 232.39 102.802 226.955 102 217.422L136.334 203.557C139.365 193.72 140.664 188.303 142.029 178.714L117.847 147.269C121.712 138.15 125.06 133.632 134.105 127.13L165.551 147.269C175.572 145.026 180.675 142.749 188.578 136.126L195.016 98.4087ZM175.79 178.829L167.901 213.391L190.005 241.109H225.457L247.561 213.391L239.672 178.829L207.731 163.447L175.79 178.829Z" fill="white"/>
<path d="M58 120.5L208 34L358 120.5L208 207L58 120.5Z" fill="#1D43FB" fill-opacity="0.3"/>
<path d="M358 122L209.088 208.718L209 382L357.912 295.282L358 122Z" fill="#1D43FB" fill-opacity="0.4"/>
<defs>
<linearGradient id="paint0_linear_1500_800" x1="58" y1="259.88" x2="207" y2="244.12" gradientUnits="userSpaceOnUse">
<stop stop-color="#1D43FB"/>
<stop offset="1" stop-color="#112895"/>
</linearGradient>
<linearGradient id="paint1_linear_1500_800" x1="58" y1="367.38" x2="207" y2="223.62" gradientUnits="userSpaceOnUse">
<stop stop-color="#1D43FB"/>
<stop offset="1" stop-color="#112895"/>
</linearGradient>
</defs>
</svg>
